<svg width="423" height="294" viewBox="0 0 423 294" fill="none" xmlns="http://www.w3.org/2000/svg">
<g clip-path="url(#clip0_3_236)">
<path d="M1.88867 293.808H423C418.386 282.041 409.865 272.059 397.852 269.097C380.28 264.771 361.684 276.667 344.153 272.194C334.191 269.656 326.35 262.258 318.109 256.115C287.021 232.935 244.418 226.086 207.631 238.354C188.401 244.764 170.882 255.973 151.185 260.738C125.714 266.903 99.077 261.79 72.8824 260.948C47.3686 260.128 10.8171 270.523 1.88867 293.808Z" fill="#F3F5FD"/>
<path d="M337.665 0.000244141H71.0632V193.071H337.665V0.000244141Z" fill="#DEE8F5"/>
<path d="M281.51 33.114H129.057V173.365H281.51V33.114Z" fill="white"/>
<path d="M265.08 89.0832L237.394 61.3975H173.173L193.227 89.0832H265.08Z" fill="#F3F5FD"/>
<path d="M145.487 89.0832L173.173 61.3975L200.858 89.0832" fill="#C1D8ED"/>
<path d="M200.858 89.0833H145.487V134.621H200.858V89.0833Z" fill="#C1D8ED"/>
<path d="M200.858 134.621H265.08V89.0832H200.858V134.621Z" fill="#DEE8F5"/>
<path d="M183.439 107.267H162.907V134.621H183.439V107.267Z" fill="white"/>
<path d="M265.079 134.621H145.487V152.475H265.079V134.621Z" fill="#C1D8ED"/>
<path d="M228.275 57.9622H214.497V73.7921H228.275V57.9622Z" fill="#DEE8F5"/>
<path d="M228.275 57.9622H214.497V62.8715H228.275V57.9622Z" fill="#C1D8ED"/>
<path d="M230.327 54.0044H212.445V59.8675H230.327V54.0044Z" fill="#DEE8F5"/>
<path d="M157.115 134.621V140.572H152.243V146.524H147.746V152.475H168.699V146.524H173.196V140.572H178.068V134.621H157.115Z" fill="#DEE8F5"/>
<path d="M228.745 102.521H208.363V122.903H228.745V102.521Z" fill="white"/>
<path d="M257.574 102.521H237.192V122.903H257.574V102.521Z" fill="white"/>
<path d="M229.449 120.944H207.659V122.903H229.449V120.944Z" fill="#C1D8ED"/>
<path d="M258.278 120.944H236.488V122.903H258.278V120.944Z" fill="#C1D8ED"/>
<path d="M337.665 0.000244141H71.0632V15.9044H337.665V0.000244141Z" fill="#C1D8ED"/>
<path d="M328.736 11.943C330.94 11.943 332.726 10.1565 332.726 7.95271C332.726 5.74892 330.94 3.9624 328.736 3.9624C326.532 3.9624 324.746 5.74892 324.746 7.95271C324.746 10.1565 326.532 11.943 328.736 11.943Z" fill="white"/>
<path d="M192.498 106.371L182.53 127.723L186.984 129.803L196.953 108.451L192.498 106.371Z" fill="#0CBC8B"/>
<path d="M198.704 111.348C197.966 111.347 197.229 111.289 196.5 111.173C193.798 110.743 191.285 109.521 189.278 107.663C187.27 105.804 185.859 103.392 185.223 100.732C184.586 98.0713 184.753 95.2819 185.702 92.7162C186.651 90.1506 188.339 87.9239 190.554 86.3178C192.768 84.7117 195.409 83.7983 198.142 83.6931C200.876 83.5879 203.579 84.2956 205.91 85.7268C208.242 87.158 210.096 89.2483 211.239 91.7335C212.382 94.2186 212.763 96.987 212.333 99.6884C211.816 102.934 210.16 105.889 207.663 108.025C205.166 110.161 201.99 111.339 198.704 111.348ZM198.669 88.5975C196.966 88.5983 195.299 89.087 193.865 90.0057C192.431 90.9243 191.29 92.2345 190.577 93.7813C189.864 95.328 189.61 97.0466 189.843 98.7336C190.076 100.421 190.788 102.005 191.894 103.301C193 104.596 194.453 105.547 196.083 106.042C197.712 106.537 199.45 106.555 201.089 106.093C202.728 105.632 204.201 104.71 205.333 103.438C206.465 102.166 207.209 100.596 207.477 98.9141C207.679 97.6406 207.603 96.3384 207.253 95.0972C206.904 93.8561 206.289 92.7055 205.452 91.7249C204.615 90.7442 203.575 89.9568 202.404 89.4169C201.233 88.877 199.959 88.5974 198.669 88.5975Z" fill="#0CBC8B"/>
<path d="M161.814 289.164L152.862 288.099C153.265 284.711 153.721 280.642 153.752 279.974C153.752 280.017 153.752 280.052 153.752 280.08H162.766C162.764 280.35 162.764 281.172 161.814 289.164Z" fill="#E98862"/>
<path d="M125.896 290.241L116.882 290.212C116.882 290.212 116.912 280.904 116.912 280.08H125.926C125.926 280.906 125.896 290.241 125.896 290.241Z" fill="#E98862"/>
<path d="M149.259 286.317L165.139 286.047C164.393 267.146 164.348 247.32 164.115 228.374C161.015 207.953 159.383 185.528 155.558 165.253L155.443 165.287L155.107 162.999L122.451 160.982C122.451 160.982 121.507 176.985 121.181 182.316C119.589 208.195 116.499 256.128 114.558 285.806L130.384 287.143C133.235 258.046 136.79 215.649 139.504 185.082C142.621 199.963 145.599 215.373 148.309 230.127C148.852 248.596 149.31 267.903 149.259 286.317Z" fill="#262626"/>
<path d="M136.854 293.728C137.097 293.727 137.336 293.675 137.558 293.578C137.78 293.48 137.979 293.337 138.143 293.159C138.307 292.98 138.433 292.77 138.512 292.541C138.591 292.312 138.623 292.069 138.604 291.827C138.578 291.492 138.456 291.172 138.254 290.903C138.052 290.635 137.777 290.43 137.462 290.313L126.972 286.799C126.769 286.731 126.554 286.709 126.341 286.732C126.128 286.756 125.923 286.825 125.739 286.936C124.297 287.936 122.572 288.448 120.817 288.395C119.45 288.298 118.138 287.819 117.031 287.012C116.933 286.932 116.815 286.882 116.69 286.866C116.565 286.851 116.438 286.872 116.325 286.926C116.211 286.98 116.115 287.065 116.048 287.171C115.981 287.278 115.945 287.401 115.946 287.527V292.658C115.946 292.809 115.976 292.959 116.034 293.099C116.092 293.238 116.177 293.365 116.284 293.472C116.391 293.579 116.519 293.664 116.659 293.721C116.799 293.778 116.949 293.808 117.1 293.807L136.854 293.728Z" fill="#C1D8ED"/>
<path d="M172.797 293.728C173.039 293.727 173.279 293.676 173.5 293.578C173.722 293.48 173.921 293.337 174.086 293.159C174.25 292.981 174.375 292.77 174.455 292.541C174.534 292.312 174.565 292.069 174.546 291.827C174.52 291.492 174.399 291.172 174.197 290.904C173.995 290.635 173.72 290.43 173.405 290.313L162.913 286.799C162.71 286.731 162.494 286.709 162.282 286.732C162.069 286.756 161.864 286.825 161.68 286.936C160.238 287.936 158.512 288.448 156.758 288.395C155.391 288.298 154.079 287.819 152.972 287.012C152.874 286.932 152.756 286.882 152.631 286.866C152.506 286.851 152.38 286.872 152.266 286.926C152.152 286.98 152.056 287.065 151.989 287.171C151.922 287.278 151.886 287.401 151.886 287.527V292.658C151.886 292.809 151.916 292.959 151.974 293.099C152.032 293.238 152.118 293.365 152.225 293.472C152.332 293.579 152.459 293.663 152.599 293.721C152.739 293.778 152.889 293.808 153.041 293.807L172.797 293.728Z" fill="#C1D8ED"/>
<path d="M132.584 116.075C132.584 116.075 136.036 114.592 136.036 105.524L142.974 104.817C142.974 104.817 141.544 112.83 144.792 115.677L132.584 116.075Z" fill="#E98862"/>
<path d="M132.444 101.712C132.693 104.484 133.972 107.195 136.311 108.275C138.853 109.534 141.665 110.151 144.5 110.073C152.033 110.073 151.948 92.9385 148.667 89.3426C145.385 85.7468 134.788 86.9848 133.066 92.4079C132.176 95.2131 132.209 99.0742 132.444 101.712Z" fill="#E98862"/>
<path d="M148.27 96.3026C149.732 96.2909 151.191 96.1678 152.634 95.9343C152.634 95.9343 152.192 84.8072 140.375 85.4417C138.841 85.3716 137.303 85.4622 135.788 85.7121C132.236 86.2568 127.2 89.8883 126.387 98.9759C126.015 103.145 124.577 107.075 123.481 109.564C123.351 109.856 123.297 110.176 123.322 110.494C123.347 110.813 123.452 111.12 123.626 111.388C123.8 111.656 124.038 111.876 124.319 112.029C124.6 112.182 124.914 112.262 125.234 112.262L150.551 112.061C150.85 112.062 151.145 111.992 151.413 111.858C151.68 111.723 151.913 111.528 152.091 111.288C152.27 111.048 152.39 110.769 152.441 110.474C152.493 110.179 152.474 109.876 152.388 109.59C151.01 105.028 148.493 102.233 148.27 96.3026Z" fill="#0F1011"/>
<path d="M112.841 176.451C112.841 177.731 113.516 182.007 112.43 182.312C111.779 182.496 111.009 179.308 111.009 179.308" fill="#E98862"/>
<path d="M107.712 175.778C107.712 175.778 104.165 184.412 108.211 189.372C108.314 189.498 108.453 189.591 108.609 189.637C108.766 189.683 108.932 189.68 109.088 189.63C109.243 189.58 109.379 189.485 109.479 189.356C109.579 189.227 109.637 189.071 109.647 188.908C109.844 185.564 110.518 178.692 112.723 179.497V174.104" fill="#E98862"/>
<path d="M187.699 129.779C187.699 129.779 192.764 123.611 193.393 122.298C195.615 117.676 194.505 115.559 193.58 114.882C192.488 114.082 187.426 120.884 187.426 120.884C187.426 120.884 187.865 118.437 186.918 118.276C186.528 118.21 186.219 118.593 185.61 120.325C184.915 122.299 183.527 125.267 183.527 125.267L187.699 129.779Z" fill="#E98862"/>
<path d="M182.484 124.547L167.83 141.033L156.369 120.518C155.284 117.277 152.814 115.105 147.774 114.889C146.051 114.815 137.641 114.803 131.485 114.803C127.348 114.803 123.952 116.073 121.991 118.034C121.003 119.007 120.264 120.204 119.836 121.523L119.777 121.501L109.924 148.293C109.814 148.593 109.734 148.904 109.687 149.221L105.711 176.013L114.969 177.386L118.875 151.071L122.854 140.251C123.268 141.914 123.495 143.618 123.529 145.332C123.529 154.346 119.451 158.389 119.751 163.015C120.224 170.289 155.563 168.57 157.364 164.439C159.218 160.178 155.455 157.553 155.62 143.616C155.637 142.099 155.755 140.512 155.916 138.897L162.87 151.345C163.234 151.997 163.748 152.553 164.371 152.965C164.993 153.377 165.706 153.635 166.448 153.716C167.19 153.797 167.941 153.699 168.638 153.43C169.335 153.162 169.957 152.73 170.453 152.172L189.719 129.634L182.484 124.547Z" fill="#367CFF"/>
<path d="M31.5095 291.083C23.0078 288.448 14.7593 285.005 7.24358 275.368C5.70129 273.394 4.25171 270.864 5.09733 268.5C5.73348 266.721 7.57368 265.581 9.44306 265.291C10.1395 265.19 10.8454 265.17 11.5464 265.233C11.5498 265.233 11.5533 265.233 11.5545 265.233C12.6321 265.344 13.6972 265.552 14.7366 265.857L15.0336 265.943C19.9936 267.352 24.7184 269.485 29.0555 272.274C29.4486 272.524 29.9148 272.634 30.3783 272.586C30.8419 272.538 31.2755 272.335 31.6088 272.009C31.942 271.683 32.1553 271.254 32.2139 270.792C32.2724 270.329 32.1729 269.861 31.9315 269.462C31.4888 268.739 30.9739 268.064 30.3948 267.445C29.5402 266.551 28.6041 265.74 27.5986 265.02C26.2619 264.045 24.836 263.175 23.4405 262.284C18.2525 258.981 13.3376 255.266 8.74295 251.177C5.46391 248.257 2.25698 245.016 0.697945 240.908C-0.0180447 239.019 -0.343846 236.841 0.510362 235.011C1.92002 232.006 5.91334 231.164 9.17864 231.788C14.9001 232.884 19.4712 237.078 23.5246 241.258C26.8861 244.732 30.6528 248.579 35.4822 248.794C36.3054 248.871 37.1331 248.705 37.8629 248.317C39.2408 247.482 39.5949 245.549 39.1038 244.014C38.6128 242.479 37.4765 241.252 36.3798 240.074C30.0046 233.234 23.7319 226.119 19.5927 217.739C15.4534 209.359 13.6197 199.465 16.4961 190.568C17.3391 187.969 18.6063 185.437 20.5834 183.548C22.5605 181.659 25.3322 180.474 28.0459 180.835C31.743 181.322 34.5276 184.441 36.4008 187.664C42.8392 198.718 42.446 212.265 44.2596 224.928C44.7669 228.473 45.5044 232.108 47.6163 235.027C47.811 235.308 48.0637 235.543 48.3572 235.718C50.0948 236.724 51.6538 234.695 52.3063 232.973C54.8818 226.162 55.5257 218.372 60.1367 212.734C61.8966 210.588 64.3863 208.794 67.1614 208.811C70.5524 208.835 73.452 211.665 74.441 214.907C75.43 218.148 74.8381 221.67 73.7787 224.889C71.8119 230.858 68.2864 236.222 64.1326 240.934C61.9434 243.424 59.4662 245.938 58.8099 249.184C58.6086 250.287 58.6927 251.424 59.0543 252.486C59.4159 253.548 60.0429 254.499 60.8758 255.251C61.2651 255.59 61.7185 255.847 62.2092 256.007C62.6998 256.168 63.2177 256.228 63.7321 256.185C64.8447 256.083 65.8509 255.515 66.8227 254.964C67.2296 254.732 67.6383 254.497 68.049 254.266C69.6685 253.344 71.2883 252.421 72.9086 251.496C77.0272 249.147 82.001 246.746 86.2909 248.769C88.4801 249.804 89.9142 251.838 90.589 254.172C91.1928 256.29 91.1928 258.535 90.589 260.654C89.3111 265.059 81.2566 277.318 77.9347 280.479C74.0534 284.17 60.599 300.098 31.5095 291.083Z" fill="#8DDBE0"/>
<path d="M364.83 226.677L351.313 292.603C351.227 292.947 351.028 293.253 350.748 293.471C350.468 293.689 350.123 293.808 349.768 293.808C349.526 293.808 349.287 293.753 349.069 293.646C348.851 293.54 348.661 293.386 348.512 293.195C348.363 293.004 348.259 292.781 348.209 292.544C348.159 292.307 348.164 292.062 348.223 291.827L361.933 225.142L364.83 226.677Z" fill="#C1D8ED"/>
<path d="M396.587 226.572L410.106 292.498C410.192 292.842 410.391 293.148 410.671 293.366C410.951 293.584 411.296 293.703 411.651 293.703C411.893 293.703 412.132 293.648 412.35 293.541C412.568 293.435 412.758 293.281 412.907 293.09C413.056 292.899 413.16 292.676 413.21 292.439C413.26 292.202 413.255 291.957 413.196 291.722L399.484 225.034L396.587 226.572Z" fill="#C1D8ED"/>
<path d="M410.794 220.229H350.623C349.102 220.229 347.869 221.462 347.869 222.983V229.048C347.869 230.569 349.102 231.802 350.623 231.802H410.794C412.315 231.802 413.548 230.569 413.548 229.048V222.983C413.548 221.462 412.315 220.229 410.794 220.229Z" fill="#DEE8F5"/>
<path d="M398.291 179.048C395.855 178.251 393.355 179.146 390.962 180.966C394.113 173.008 395.414 165.821 390.027 165.498C386.257 165.271 383.37 168.163 381.176 172.275C380.404 165.046 378.414 159.655 373.956 161.442C369.062 163.404 368.316 170.13 369.059 177.166C366.902 173.572 364.581 171.568 362.472 173.676C356.18 179.968 371.624 197.7 371.624 197.7H375.46L377.649 200.076C377.206 201.013 376.962 201.571 376.962 201.571L379.742 207.229C379.742 207.229 408.402 182.358 398.291 179.048Z" fill="#8DDBE0"/>
<path d="M391.414 219.899H369.708L366.073 194.558H395.048L391.414 219.899Z" fill="#C1D8ED"/>
</g>
<defs>
<clipPath id="clip0_3_236">
<rect width="423" height="293.808" fill="white"/>
</clipPath>
</defs>
</svg>
